# xmcd
#
# Track frame offsets:
# 150
# 12920
# 34234
# 48315
# 66655
# 86168
# 104072
# 123723
# 150195
# 168405
# 184048
#
# Disc length: 2687 seconds
#
# Revision: 1
# Processed by: cddbd v1.4PL0 Copyright (c) Steve Scherf et al.
# Submitted via: inCDius 2.0b9
#
DISCID=950a7d0b
DTITLE=Liberation Suite - Liberation Suite (25th Anniversary Remaster)
DYEAR=1900
DGENRE=
TTITLE0=Led To Roam
TTITLE1=Run Run Lucifer
TTITLE2=My Lord Is A Ready
TTITLE3=Oh Lord You Know (That I Feel So Fine)
TTITLE4=Reachin' For The Sky
TTITLE5=More Than A Matter
TTITLE6=Presence of the Lord
TTITLE7=Hearken
TTITLE8=I Wanna Be With You
TTITLE9=Interview
TTITLE10=I Wanna Be With You (live)
EXTD=
EXTT0=
EXTT1=
EXTT2=
EXTT3=
EXTT4=
EXTT5=
EXTT6=
EXTT7=
EXTT8=
EXTT9=
EXTT10=
PLAYORDER=
